<?xml version="1.0" standalone="no"?><!DOCTYPE svg PUBLIC "-//W3C//DTD SVG 1.1//EN" "http://www.w3.org/Graphics/SVG/1.1/DTD/svg11.dtd"><svg t="1524320226039" class="icon" style="" viewBox="0 0 1024 1024" version="1.1" xmlns="http://www.w3.org/2000/svg" p-id="5001" xmlns:xlink="http://www.w3.org/1999/xlink" width="32" height="32"><defs><style type="text/css"></style></defs><path d="M128 260.096l43.008 0 0-43.008-43.008 0L128 260.096zM128 179.2l43.008 0 0-43.008-43.008 0L128 179.2zM171.008 596.992l-43.008 0 0 43.008 43.008 0L171.008 596.992zM171.008 677.888l-43.008 0 0 43.008 43.008 0L171.008 677.888zM171.008 844.8l-43.008 0 0 43.008 43.008 0L171.008 844.8zM128 427.008l43.008 0 0-43.008-43.008 0L128 427.008zM171.008 763.904l-43.008 0 0 43.008 43.008 0L171.008 763.904zM128 346.112l43.008 0 0-43.008-43.008 0L128 346.112zM836.608 346.112l43.008 0 0-43.008-43.008 0L836.608 346.112zM836.608 260.096l43.008 0 0-43.008-43.008 0L836.608 260.096zM836.608 427.008l43.008 0 0-43.008-43.008 0L836.608 427.008zM878.592 55.296 128 55.296c-47.104 0-84.992 37.888-84.992 84.992l0 750.592c0 47.104 37.888 84.992 84.992 84.992l750.592 0c47.104 0 84.992-38.912 84.992-84.992L963.584 136.192C960.512 89.088 921.6 55.296 878.592 55.296zM208.896 929.792l-80.896 0c-21.504 0-43.008-17.408-43.008-43.008L84.992 533.504l123.904 0L208.896 929.792zM208.896 490.496 84.992 490.496 84.992 136.192c0-21.504 17.408-43.008 43.008-43.008l84.992 0 0 396.288L208.896 489.472zM750.592 929.792 251.904 929.792 251.904 94.208l499.712 0L751.616 929.792zM917.504 887.808c0 21.504-17.408 43.008-43.008 43.008l-84.992 0L789.504 533.504l123.904 0 0 354.304L917.504 887.808zM917.504 490.496 793.6 490.496 793.6 94.208l84.992 0c21.504 0 43.008 17.408 43.008 43.008l0 354.304L917.504 491.52zM836.608 179.2l43.008 0 0-43.008-43.008 0L836.608 179.2zM878.592 677.888l-43.008 0 0 43.008 43.008 0L878.592 677.888zM397.312 677.888c4.096 0 8.192 0 13.312-4.096l0 0 230.4-145.408 0 0c4.096-4.096 8.192-8.192 8.192-17.408 0-8.192-4.096-13.312-8.192-17.408l0 0L409.6 350.208l0 0c0-4.096-4.096-4.096-13.312-4.096-13.312 0-21.504 8.192-21.504 21.504l0 289.792C375.808 669.696 388.096 677.888 397.312 677.888zM417.792 405.504 588.8 512 417.792 618.496 417.792 405.504zM878.592 596.992l-43.008 0 0 43.008 43.008 0L878.592 596.992zM878.592 844.8l-43.008 0 0 43.008 43.008 0L878.592 844.8zM878.592 763.904l-43.008 0 0 43.008 43.008 0L878.592 763.904z" p-id="5002" fill="#515151"></path></svg>