<?xml version="1.0" standalone="no"?><!DOCTYPE svg PUBLIC "-//W3C//DTD SVG 1.1//EN" "http://www.w3.org/Graphics/SVG/1.1/DTD/svg11.dtd"><svg t="1524320021609" class="icon" style="" viewBox="0 0 1024 1024" version="1.1" xmlns="http://www.w3.org/2000/svg" p-id="2596" xmlns:xlink="http://www.w3.org/1999/xlink" width="32" height="32"><defs><style type="text/css"></style></defs><path d="M928 1024h-832a32 32 0 0 1-32-32V32a32 32 0 0 1 32-32h832a32 32 0 0 1 32 32v960a32 32 0 0 1-32 32zM128 960h768V64H128z" p-id="2597" fill="#515151"></path><path d="M736 256h-128a32 32 0 0 1 0-64h128a32 32 0 0 1 0 64zM736 448h-128a32 32 0 0 1 0-64h128a32 32 0 0 1 0 64zM736 640h-448a32 32 0 0 1 0-64h448a32 32 0 0 1 0 64zM736 832h-448a32 32 0 0 1 0-64h448a32 32 0 0 1 0 64zM480 448h-192a32 32 0 0 1-32-32v-192a32 32 0 0 1 32-32h192a32 32 0 0 1 32 32v192a32 32 0 0 1-32 32zM320 384h128V256H320z" p-id="2598" fill="#515151"></path></svg>